<?xml version="1.0" encoding="iso-8859-1"?>
<!-- Uploaded to: SVG Repo, www.svgrepo.com, Generator: SVG Repo Mixer Tools -->
<!DOCTYPE svg PUBLIC "-//W3C//DTD SVG 1.1//EN" "http://www.w3.org/Graphics/SVG/1.1/DTD/svg11.dtd">
<svg fill="#000000" version="1.1" id="Capa_1" xmlns="http://www.w3.org/2000/svg" xmlns:xlink="http://www.w3.org/1999/xlink" 
	 width="800px" height="800px" viewBox="0 0 262.796 262.796"
	 xml:space="preserve">
<g>
	<polygon points="35.719,25.154 152.978,148.751 173.111,112.236 120.309,59.436 60.873,0 	"/>
	<polygon points="25.16,35.72 0.005,60.874 59.435,120.303 112.241,173.106 148.756,152.972 	"/>
	<polygon points="123.975,184.84 134.708,195.576 218.652,242.233 230.421,230.464 160.886,164.489 	"/>
	<polygon points="195.581,134.712 184.845,123.969 164.489,160.887 230.457,230.429 242.239,218.646 	"/>
	<path d="M246.586,231.701l-14.897,14.892c0,0,8.965,5.633,20.026,12.574c11.061,6.953,14.399,3.615,7.445-7.445L246.586,231.701z"
		/>
</g>
</svg>